<svg width="19" height="18" viewBox="0 0 19 18" fill="none" xmlns="http://www.w3.org/2000/svg">
<path fill-rule="evenodd" clip-rule="evenodd" d="M0.5168 1.80503C0.760001 1.43155 1.08133 1.12681 1.45408 0.916127C1.82683 0.705447 2.24025 0.594906 2.66 0.593689H16.34C17.2292 0.593689 18.0054 1.08113 18.4832 1.80503C18.809 2.30076 19 2.91162 19 3.56707V14.214C19 15.8205 17.841 17.1874 16.34 17.1874H2.66C1.159 17.1874 0 15.8205 0 14.214V3.56707C0 2.91162 0.19 2.30076 0.5168 1.80399V1.80503ZM2.78635 2.6679L8.797 9.89133C8.88604 9.99828 8.99457 10.0837 9.11563 10.1422C9.2367 10.2007 9.36762 10.2309 9.5 10.2309C9.63238 10.2309 9.7633 10.2007 9.88436 10.1422C10.0054 10.0837 10.114 9.99828 10.203 9.89133L16.2136 2.6679H2.78635ZM17.1 4.68818L11.609 11.2862C11.3419 11.6071 11.0163 11.8634 10.6531 12.0388C10.2899 12.2142 9.89715 12.3049 9.5 12.3049C9.10285 12.3049 8.71009 12.2142 8.34691 12.0388C7.98372 11.8634 7.65812 11.6071 7.391 11.2862L1.9 4.68818V14.214C1.9 14.7471 2.2724 15.1132 2.66 15.1132H16.34C16.7276 15.1132 17.1 14.7471 17.1 14.214V4.68818Z" fill="white"/>
</svg>
