<svg width="19" height="20" viewBox="0 0 19 20" fill="none" xmlns="http://www.w3.org/2000/svg">
<path fill-rule="evenodd" clip-rule="evenodd" d="M6.49822 12.8035C8.7791 15.0169 10.8976 16.2506 12.474 16.9362C13.8506 17.5349 15.4751 17.0651 16.7415 15.8362L17.0308 15.5545L13.5514 13.406C12.8902 14.3418 11.6395 14.8909 10.3909 14.38C9.44525 13.9923 8.19362 13.3297 7.07483 12.244C5.95604 11.1583 5.27414 9.94373 4.87464 9.02611C4.34722 7.8144 4.91203 6.60077 5.87732 5.95911L3.66335 2.58273L3.37308 2.86345C2.10669 4.09236 1.62355 5.66883 2.23953 7.00468C2.94603 8.53436 4.21734 10.5902 6.49822 12.8035ZM11.67 18.6788C9.88411 17.9025 7.56486 16.5389 5.10686 14.1537C2.64887 11.7694 1.24373 9.51786 0.44277 7.7848C-0.615015 5.49313 0.351259 3.09644 1.98172 1.51328L2.27101 1.2316C2.47937 1.02928 2.73189 0.874964 3.00994 0.780042C3.28799 0.68512 3.58446 0.652019 3.87745 0.683183C4.17045 0.714347 4.45249 0.80898 4.70275 0.960094C4.95301 1.11121 5.16509 1.31494 5.32334 1.55625L8.10802 5.80537C8.18177 5.91809 8.23035 6.04455 8.25061 6.17661C8.27087 6.30868 8.26237 6.44339 8.22565 6.57206C8.18893 6.70074 8.12481 6.82051 8.03743 6.92364C7.95005 7.02678 7.84136 7.11098 7.71836 7.17082L7.0955 7.47351C6.67041 7.67976 6.58382 8.04356 6.68714 8.28323C7.02071 9.04998 7.57863 10.0316 8.46619 10.8938C9.35473 11.7551 10.3663 12.2965 11.1564 12.6202C11.4034 12.7214 11.7783 12.6364 11.9908 12.2239L12.3027 11.6195C12.3643 11.5001 12.451 11.3945 12.5573 11.3096C12.6635 11.2247 12.7869 11.1624 12.9195 11.1267C13.0521 11.0909 13.191 11.0826 13.3271 11.1022C13.4633 11.1218 13.5936 11.1689 13.7098 11.2404L18.0886 13.9436C18.3373 14.0972 18.5472 14.303 18.7029 14.5458C18.8587 14.7887 18.9562 15.0624 18.9883 15.3467C19.0204 15.631 18.9863 15.9187 18.8885 16.1886C18.7907 16.4584 18.6316 16.7034 18.4231 16.9056L18.1329 17.1863C16.5024 18.7695 14.0326 19.7062 11.67 18.6788Z" fill="white"/>
</svg>
