<svg width="460" height="406" viewBox="0 0 460 406" fill="none" xmlns="http://www.w3.org/2000/svg">
<path d="M0.787109 397.78C2.32154 391.018 3.57182 384.141 5.50407 377.492C13.0625 351.122 31.703 334.527 56.197 325.207C83.2484 314.921 111.152 306.907 138.658 297.928C142.864 296.564 147.126 295.2 151.332 293.723C169.176 287.244 169.29 287.187 168.665 267.694C168.373 264.658 167.36 261.735 165.71 259.169C160.027 248.371 153.15 237.915 147.694 226.889C145.402 220.804 141.468 215.472 136.328 211.488C120.643 200.122 118.37 172.616 130.645 157.442C132.158 154.77 132.7 151.658 132.18 148.633C131.27 139.995 133.373 133.402 142.75 131.584C160.993 127.492 179.292 123.343 197.649 119.819C199.252 119.852 200.83 120.223 202.28 120.909C203.729 121.594 205.017 122.579 206.059 123.798C225.155 144.484 232.599 144.825 252.206 123.798C253.527 122.421 255.13 121.347 256.906 120.651C258.682 119.954 260.588 119.651 262.492 119.763C281.417 123.854 300.114 128.856 318.868 133.459C319.956 133.63 320.998 134.018 321.933 134.601C322.867 135.183 323.674 135.949 324.305 136.851C324.937 137.753 325.379 138.773 325.607 139.85C325.835 140.928 325.843 142.04 325.631 143.12C325.631 150.111 323.87 157.669 332.053 162.5C334.27 163.807 335.008 168.808 335.065 172.161C335.463 189.665 332.394 205.748 316.197 216.432C314.015 218.675 312.568 221.53 312.049 224.616C308.182 238.45 301.464 251.324 292.328 262.409C287.896 268.092 289.032 277.753 287.782 285.141C328.075 300.201 366.947 314.068 405.308 329.356C424.46 336.971 441.85 348.508 450.772 368.171C454.495 377.931 457.459 387.963 459.638 398.178V405.85H0.787109V397.78ZM304.831 174.491L301.706 152.838C252.774 170.229 204.184 172.275 154.855 154.089L150.309 173.866C147.694 172.672 146.33 171.934 144.91 171.422C141.841 170.229 138.715 169.206 135.646 168.126C134.432 171.245 133.777 174.554 133.714 177.901C134.977 184.751 136.88 191.467 139.397 197.962C140.25 200.292 143.262 203.645 145.08 203.645C152.184 203.645 153.036 208.817 154.741 213.591C156.446 218.365 158.208 223.82 160.14 228.821C164.258 239.217 170.622 248.574 178.778 256.223C186.934 263.872 196.679 269.624 207.317 273.067C217.955 276.51 229.223 277.559 240.314 276.139C251.404 274.718 262.044 270.865 271.472 264.852C279.493 259.604 286.388 252.81 291.754 244.867C297.121 236.924 300.852 227.992 302.729 218.592C303.695 214.557 305.456 208.703 308.412 207.226C323.472 200.69 323.244 186.994 325.006 174.434C325.802 168.751 323.131 164.773 316.311 169.092C312.586 171.101 308.754 172.904 304.831 174.491ZM278.803 273.036C245.614 294.405 212.481 292.074 179.804 271.899C176.735 288.949 176.792 288.949 191.17 293.609C192.112 293.751 193.042 293.96 193.955 294.234C217.937 306.623 241.749 304.407 266.186 294.746C280.053 289.176 280.451 290.199 278.803 273.036ZM282.61 299.804L239.476 312.42L237.885 314.978L256.184 327.765C247.375 336.346 240.272 341.859 243.681 352.713C245.832 361.313 247.408 370.046 248.398 378.856H250.217L282.61 299.804ZM212.425 376.753C213.448 360.613 230.042 343.052 206.059 328.617L225.098 314.125L180.656 300.429L212.425 376.753Z" fill="black"/>
<path d="M235.326 0.190186C249.761 9.33999 264.537 18.0351 278.518 27.81C298.654 42.4675 321.306 53.3118 345.351 59.8059C358.99 63.2726 359.786 66.9098 351.034 77.9351C348.429 81.9555 345.251 85.5741 341.6 88.6762C330.802 95.9506 321.141 103.395 327.051 118.797L263.06 102.6L264.651 82.5384C253.285 78.1624 242.999 74.1276 232.656 70.3768C230.661 69.7258 228.512 69.7258 226.518 70.3768C216.516 73.8435 206.57 77.5943 194.749 81.743L196.17 101.975L131.497 118.91C135.987 103.793 127.519 95.4393 116.323 87.7671C111.454 83.6371 107.289 78.7422 103.991 73.2749C99.6717 67.5918 101.149 63.2727 108.253 61.3405C113.197 59.9765 118.028 58.3283 122.916 56.9644C148.887 49.5763 170.369 34.2322 192.192 19.1719C202.365 12.1817 213.333 6.49843 223.96 0.190186H235.326Z" fill="black"/>
</svg>
