<svg width="44" height="38" viewBox="0 0 44 38" fill="none" xmlns="http://www.w3.org/2000/svg">
<path d="M15 25C17.5359 22.4641 20.8756 21.5359 24 22.2154" stroke="black" stroke-width="3" stroke-linecap="round" stroke-linejoin="round"/>
<path d="M9 18C15.3465 11.7007 22.2443 10.3343 29 14.0297" stroke="black" stroke-width="3" stroke-linecap="round" stroke-linejoin="round"/>
<path d="M2 10C14.6316 -0.666619 29.3684 -0.666639 42 9.99978" stroke="black" stroke-width="3" stroke-linecap="round" stroke-linejoin="round"/>
<path d="M30.1606 35.7145L29.5521 37.0856L29.5521 37.0856L30.1606 35.7145ZM28.2664 33.6851L26.8673 34.2259L26.8673 34.2259L28.2664 33.6851ZM41.7336 33.6851L43.1327 34.226L43.1327 34.2259L41.7336 33.6851ZM39.8394 35.7145L40.4479 37.0856L40.4479 37.0856L39.8394 35.7145ZM39.8394 25.0355L40.4479 23.6644L40.4479 23.6644L39.8394 25.0355ZM41.7336 27.0649L43.1327 26.5241L43.1327 26.5241L41.7336 27.0649ZM30.1606 25.0355L29.5521 23.6644L29.5521 23.6644L30.1606 25.0355ZM28.2664 27.0649L26.8673 26.5241L26.8673 26.5241L28.2664 27.0649ZM30 24.75C30 25.5784 30.6716 26.25 31.5 26.25C32.3284 26.25 33 25.5784 33 24.75H30ZM37 24.75C37 25.5784 37.6716 26.25 38.5 26.25C39.3284 26.25 40 25.5784 40 24.75H37ZM33.25 24.75V26.25H36.75V24.75V23.25H33.25V24.75ZM36.75 36V34.5H33.25V36V37.5H36.75V36ZM33.25 36V34.5C32.4126 34.5 31.8651 34.4991 31.4443 34.4683C31.0392 34.4387 30.8676 34.3872 30.7691 34.3435L30.1606 35.7145L29.5521 37.0856C30.0968 37.3273 30.6545 37.4186 31.2256 37.4603C31.781 37.5009 32.4566 37.5 33.25 37.5V36ZM28 30.375H26.5C26.5 31.2295 26.4993 31.9405 26.5363 32.5222C26.5741 33.1155 26.6555 33.6781 26.8673 34.2259L28.2664 33.6851L29.6655 33.1442C29.6109 33.0029 29.5591 32.7841 29.5303 32.3315C29.5007 31.8673 29.5 31.2678 29.5 30.375H28ZM30.1606 35.7145L30.7691 34.3435C30.2942 34.1328 29.8855 33.7131 29.6655 33.1442L28.2664 33.6851L26.8673 34.2259C27.3578 35.4947 28.3118 36.5351 29.5521 37.0856L30.1606 35.7145ZM42 30.375H40.5C40.5 31.2678 40.4993 31.8673 40.4697 32.3315C40.4409 32.7841 40.3891 33.0029 40.3345 33.1442L41.7336 33.6851L43.1327 34.2259C43.3445 33.6781 43.4259 33.1155 43.4637 32.5222C43.5007 31.9405 43.5 31.2295 43.5 30.375H42ZM36.75 36V37.5C37.5434 37.5 38.219 37.5009 38.7744 37.4603C39.3455 37.4186 39.9032 37.3273 40.4479 37.0856L39.8394 35.7145L39.2309 34.3435C39.1324 34.3872 38.9608 34.4387 38.5557 34.4683C38.1349 34.4991 37.5874 34.5 36.75 34.5V36ZM41.7336 33.6851L40.3345 33.1442C40.1145 33.7131 39.7058 34.1328 39.2309 34.3435L39.8394 35.7145L40.4479 37.0856C41.6882 36.5351 42.6422 35.4947 43.1327 34.226L41.7336 33.6851ZM36.75 24.75V26.25C37.5874 26.25 38.1349 26.2509 38.5557 26.2817C38.9608 26.3113 39.1324 26.3628 39.2309 26.4065L39.8394 25.0355L40.4479 23.6644C39.9032 23.4227 39.3455 23.3314 38.7744 23.2897C38.219 23.2491 37.5434 23.25 36.75 23.25V24.75ZM42 30.375H43.5C43.5 29.5205 43.5007 28.8095 43.4637 28.2278C43.4259 27.6345 43.3445 27.0719 43.1327 26.5241L41.7336 27.0649L40.3345 27.6058C40.3891 27.7471 40.4409 27.9659 40.4697 28.4185C40.4993 28.8827 40.5 29.4822 40.5 30.375H42ZM39.8394 25.0355L39.2309 26.4065C39.7058 26.6172 40.1145 27.0369 40.3345 27.6058L41.7336 27.0649L43.1327 26.5241C42.6422 25.2553 41.6882 24.2149 40.4479 23.6644L39.8394 25.0355ZM33.25 24.75V23.25C32.4566 23.25 31.781 23.2491 31.2256 23.2897C30.6545 23.3314 30.0968 23.4227 29.5521 23.6644L30.1606 25.0355L30.7691 26.4065C30.8676 26.3628 31.0392 26.3113 31.4443 26.2817C31.8651 26.2509 32.4126 26.25 33.25 26.25V24.75ZM28 30.375H29.5C29.5 29.4822 29.5007 28.8827 29.5303 28.4185C29.5591 27.9659 29.6109 27.7471 29.6655 27.6058L28.2664 27.0649L26.8673 26.5241C26.6555 27.0719 26.5741 27.6345 26.5363 28.2278C26.4993 28.8095 26.5 29.5205 26.5 30.375H28ZM30.1606 25.0355L29.5521 23.6644C28.3118 24.2149 27.3578 25.2553 26.8673 26.5241L28.2664 27.0649L29.6655 27.6058C29.8855 27.0369 30.2942 26.6172 30.7691 26.4065L30.1606 25.0355ZM31.5 24.75H33V21.375H31.5H30V24.75H31.5ZM38.5 21.375H37V24.75H38.5H40V21.375H38.5ZM35 18V19.5C36.1565 19.5 37 20.3904 37 21.375H38.5H40C40 18.6317 37.7095 16.5 35 16.5V18ZM31.5 21.375H33C33 20.3904 33.8435 19.5 35 19.5V18V16.5C32.2905 16.5 30 18.6317 30 21.375H31.5Z" fill="black"/>
</svg>
