<svg width="252" height="76" viewBox="0 0 252 76" fill="none" xmlns="http://www.w3.org/2000/svg">
<g clip-path="url(#clip0_204_25)">
<rect width="252" height="76" fill="white"/>
<rect x="0.5" y="0.5" width="104" height="75" stroke="black"/>
<path d="M39.552 16.272L34.32 34.032H31.512L27.528 20.112L23.52 34.032H20.664L15.504 16.272H18.312L22.152 30.24L26.16 16.272H28.992L32.952 30.168L36.864 16.272H39.552ZM49.5587 18.336C47.8947 18.336 46.5827 19.04 45.6227 20.448C44.7427 21.712 44.3027 23.28 44.3027 25.152C44.3027 27.04 44.7427 28.616 45.6227 29.88C46.5827 31.288 47.8947 31.992 49.5587 31.992C51.2227 31.992 52.5347 31.288 53.4947 29.88C54.3587 28.616 54.7907 27.04 54.7907 25.152C54.7907 23.296 54.3587 21.728 53.4947 20.448C52.5347 19.04 51.2227 18.336 49.5587 18.336ZM49.5587 15.912C52.1187 15.912 54.1107 16.864 55.5347 18.768C56.7987 20.464 57.4227 22.592 57.4067 25.152C57.3747 27.952 56.7187 30.16 55.4387 31.776C54.0467 33.536 52.0867 34.416 49.5587 34.416C47.0467 34.416 45.0787 33.536 43.6547 31.776C42.3427 30.128 41.6867 27.92 41.6867 25.152C41.6867 22.56 42.3107 20.424 43.5587 18.744C44.9667 16.856 46.9667 15.912 49.5587 15.912ZM64.0093 23.616H65.2333C66.2893 23.616 67.1213 23.424 67.7293 23.04C68.4653 22.608 68.8333 21.952 68.8333 21.072C68.8333 20.032 68.5213 19.352 67.8973 19.032C67.4653 18.824 66.5853 18.72 65.2573 18.72H64.0093V23.616ZM72.9373 34.032H70.1773L67.5853 28.032C67.2333 27.216 66.9133 26.704 66.6253 26.496C66.2733 26.224 65.7133 26.088 64.9453 26.088H64.0093V34.032H61.4413V16.272H66.1453C69.6653 16.272 71.4253 17.872 71.4253 21.072C71.4253 22.128 71.0973 23.008 70.4413 23.712C69.7853 24.416 68.9293 24.872 67.8733 25.08C68.7693 25.256 69.4333 25.848 69.8653 26.856L72.9373 34.032ZM89.724 34.032H86.172L78.756 26.4V34.032H76.188V16.272H78.756V23.088L85.572 16.272H89.052L80.556 24.648L89.724 34.032Z" fill="black"/>
<path d="M129.208 47.032H120.184V29.272H122.776V44.56H129.208V47.032ZM138.601 47.152V45.88C137.817 46.904 136.689 47.416 135.217 47.416C133.617 47.416 132.433 46.968 131.665 46.072C131.121 45.416 130.849 44.616 130.849 43.672C130.849 40.408 133.249 38.776 138.049 38.776H138.409V38.344C138.409 36.776 137.681 35.992 136.225 35.992C134.913 35.992 133.617 36.336 132.337 37.024V34.672C133.553 34.048 134.897 33.736 136.369 33.736C137.905 33.736 139.025 34.096 139.729 34.816C140.481 35.6 140.857 36.816 140.857 38.464V44.056C140.857 45.528 140.905 46.56 141.001 47.152H138.601ZM138.409 41.008H137.905C136.657 41.008 135.697 41.12 135.025 41.344C133.953 41.696 133.417 42.392 133.417 43.432C133.417 44.584 134.081 45.16 135.409 45.16C137.409 45.16 138.409 43.944 138.409 41.512V41.008ZM151.295 36.64C150.239 36.192 149.239 35.968 148.295 35.968C146.967 35.968 146.303 36.488 146.303 37.528C146.303 37.992 146.807 38.472 147.815 38.968C149.271 39.688 150.207 40.216 150.623 40.552C151.615 41.368 152.111 42.376 152.111 43.576C152.111 44.92 151.575 45.936 150.503 46.624C149.655 47.152 148.639 47.416 147.455 47.416C146.015 47.416 144.767 47.2 143.711 46.768L143.951 44.296C145.119 44.872 146.263 45.16 147.383 45.16C148.023 45.16 148.551 44.992 148.967 44.656C149.351 44.352 149.543 43.952 149.543 43.456C149.543 42.816 149.055 42.224 148.079 41.68C147.167 41.184 146.487 40.808 146.039 40.552C145.591 40.296 145.359 40.16 145.343 40.144C144.367 39.408 143.879 38.504 143.879 37.432C143.879 36.12 144.367 35.144 145.343 34.504C146.127 33.992 147.079 33.736 148.199 33.736C149.447 33.736 150.567 33.952 151.559 34.384L151.295 36.64ZM170.306 31.72H164.282V36.664H169.97V39.136H164.282V47.032H161.666V29.272H170.306V31.72ZM181.403 47.152V45.832C180.539 46.888 179.403 47.416 177.995 47.416C176.427 47.416 175.235 46.944 174.419 46C173.699 45.12 173.339 43.936 173.339 42.448V34.048H175.907V41.968C175.907 44.096 176.683 45.16 178.235 45.16C179.275 45.16 180.067 44.768 180.611 43.984C181.043 43.344 181.259 42.472 181.259 41.368V34.048H183.803V43.84C183.803 45.024 183.851 46.128 183.947 47.152H181.403ZM197.781 41.488H189.693C189.741 42.64 190.053 43.536 190.629 44.176C191.221 44.864 192.037 45.208 193.077 45.208C194.517 45.208 195.789 44.896 196.893 44.272V46.696C195.613 47.176 194.317 47.416 193.005 47.416C190.941 47.416 189.405 46.76 188.397 45.448C187.517 44.28 187.077 42.648 187.077 40.552C187.077 38.536 187.565 36.896 188.541 35.632C189.517 34.368 190.829 33.736 192.477 33.736C194.317 33.736 195.693 34.392 196.605 35.704C197.389 36.824 197.781 38.304 197.781 40.144V41.488ZM195.165 39.208C195.165 38.312 194.933 37.56 194.469 36.952C193.989 36.312 193.357 35.992 192.573 35.992C191.773 35.992 191.093 36.32 190.533 36.976C189.973 37.632 189.693 38.376 189.693 39.208H195.165ZM211.339 47.128H208.843V39.088C208.843 37.024 208.091 35.992 206.587 35.992C205.563 35.992 204.787 36.4 204.259 37.216C203.827 37.92 203.611 38.824 203.611 39.928V47.128H201.115V37.36C201.115 36.736 201.099 36.152 201.067 35.608C201.051 35.048 201.027 34.52 200.995 34.024H203.395V35.344C204.179 34.272 205.339 33.736 206.875 33.736C209.851 33.736 211.339 35.392 211.339 38.704V47.128ZM221.742 47.032C221.134 47.288 220.446 47.416 219.678 47.416C218.158 47.416 217.174 47.008 216.726 46.192C216.39 45.648 216.222 44.6 216.222 43.048V36.256H214.158V33.88H216.222V31.024L218.814 30.184V33.88H221.358V36.256H218.814V43.72C218.814 44.648 219.238 45.112 220.086 45.112C220.646 45.112 221.134 45.008 221.55 44.8L221.742 47.032ZM234.133 41.488H226.045C226.093 42.64 226.405 43.536 226.981 44.176C227.573 44.864 228.389 45.208 229.429 45.208C230.869 45.208 232.141 44.896 233.245 44.272V46.696C231.965 47.176 230.669 47.416 229.357 47.416C227.293 47.416 225.757 46.76 224.749 45.448C223.869 44.28 223.429 42.648 223.429 40.552C223.429 38.536 223.917 36.896 224.893 35.632C225.869 34.368 227.181 33.736 228.829 33.736C230.669 33.736 232.045 34.392 232.957 35.704C233.741 36.824 234.133 38.304 234.133 40.144V41.488ZM231.517 39.208C231.517 38.312 231.285 37.56 230.821 36.952C230.341 36.312 229.709 35.992 228.925 35.992C228.125 35.992 227.445 36.32 226.885 36.976C226.325 37.632 226.045 38.376 226.045 39.208H231.517ZM243.803 36.64C242.747 36.192 241.747 35.968 240.803 35.968C239.475 35.968 238.811 36.488 238.811 37.528C238.811 37.992 239.315 38.472 240.323 38.968C241.779 39.688 242.715 40.216 243.131 40.552C244.123 41.368 244.619 42.376 244.619 43.576C244.619 44.92 244.083 45.936 243.011 46.624C242.163 47.152 241.147 47.416 239.963 47.416C238.523 47.416 237.275 47.2 236.219 46.768L236.459 44.296C237.627 44.872 238.771 45.16 239.891 45.16C240.531 45.16 241.059 44.992 241.475 44.656C241.859 44.352 242.051 43.952 242.051 43.456C242.051 42.816 241.563 42.224 240.587 41.68C239.675 41.184 238.995 40.808 238.547 40.552C238.099 40.296 237.867 40.16 237.851 40.144C236.875 39.408 236.387 38.504 236.387 37.432C236.387 36.12 236.875 35.144 237.851 34.504C238.635 33.992 239.587 33.736 240.707 33.736C241.955 33.736 243.075 33.952 244.067 34.384L243.803 36.64Z" fill="black"/>
<path d="M30.072 61.128H27.48V53.136H20.112V61.128H17.496V43.224H20.112V50.688H27.48V43.224H30.072V61.128ZM47.7255 43.224V54.816C47.7255 57.216 46.9655 58.984 45.4455 60.12C44.3095 60.984 42.9015 61.416 41.2215 61.416C39.5575 61.416 38.1495 60.984 36.9975 60.12C35.4935 59 34.7415 57.232 34.7415 54.816V43.224H37.3575V54.696C37.3575 55.992 37.6855 57.016 38.3415 57.768C39.0135 58.568 39.9735 58.968 41.2215 58.968C42.4695 58.968 43.4455 58.568 44.1495 57.768C44.7895 57.032 45.1095 56.008 45.1095 54.696V43.224H47.7255ZM54.7464 58.56H55.9464C58.6984 58.56 60.0744 57.648 60.0744 55.824C60.0744 54.656 59.6024 53.864 58.6584 53.448C58.0344 53.176 57.0424 53.04 55.6824 53.04H54.7464V58.56ZM54.7944 50.568H56.1144C58.4184 50.568 59.5704 49.704 59.5704 47.976C59.5704 46.472 58.5544 45.72 56.5224 45.72H54.7944V50.568ZM52.1784 43.272H56.5224C60.2504 43.272 62.1144 44.776 62.1144 47.784C62.1144 49.784 61.1384 51.088 59.1864 51.696C60.2424 52 61.0744 52.512 61.6824 53.232C62.3224 53.968 62.6424 54.84 62.6424 55.848C62.6424 59.304 60.3944 61.032 55.8984 61.032H52.1784V43.272Z" fill="black"/>
</g>
<defs>
<clipPath id="clip0_204_25">
<rect width="252" height="76" fill="white"/>
</clipPath>
</defs>
</svg>
