<svg width="32" height="32" viewBox="0 0 32 32" fill="none" xmlns="http://www.w3.org/2000/svg">
<path d="M10.0669 32C22.1394 32 28.7444 19.6874 28.7444 9.01315C28.7444 8.66701 28.7381 8.31318 28.7256 7.96704C30.0105 6.82345 31.1193 5.40696 32 3.78412C30.8034 4.43936 29.5329 4.86729 28.2319 5.0533C29.6017 4.04275 30.6274 2.45522 31.1187 0.585003C29.8301 1.52493 28.4208 2.18797 26.9513 2.5457C25.9611 1.2509 24.652 0.393583 23.2262 0.106307C21.8005 -0.180969 20.3376 0.117793 19.0637 0.956402C17.7897 1.79501 16.7757 3.12676 16.1785 4.74574C15.5812 6.36473 15.4339 8.18078 15.7594 9.91312C13.15 9.75197 10.5972 8.91772 8.26664 7.46447C5.93604 6.01122 3.87959 3.97141 2.23062 1.47728C1.39253 3.25564 1.13608 5.36001 1.51337 7.36272C1.89067 9.36543 2.87342 11.1162 4.26188 12.2592C3.2195 12.2185 2.19997 11.8731 1.2875 11.2515V11.3515C1.28657 13.2178 1.8108 15.0268 2.77108 16.4712C3.73136 17.9155 5.06843 18.906 6.555 19.2743C5.58941 19.5995 4.57598 19.6468 3.59313 19.4128C4.01261 21.0178 4.82876 22.4215 5.92769 23.4282C7.02662 24.4348 8.35349 24.9941 9.72313 25.0279C7.3979 27.2759 4.52557 28.4951 1.56875 28.4894C1.04438 28.4884 0.520532 28.4488 0 28.3709C3.00381 30.7426 6.49804 32.0023 10.0669 32Z" fill="black"/>
</svg>
