<svg width="48" height="32" viewBox="0 0 48 32" fill="none" xmlns="http://www.w3.org/2000/svg">
<path d="M47.5219 6.90475C47.5219 6.90475 47.0531 3.76784 45.6094 2.39045C43.7812 0.577618 41.7375 0.568731 40.8 0.462094C34.0875 -2.54243e-07 24.0094 0 24.0094 0H23.9906C23.9906 0 13.9125 -2.54243e-07 7.2 0.462094C6.2625 0.568731 4.21875 0.577618 2.39062 2.39045C0.946875 3.76784 0.4875 6.90475 0.4875 6.90475C0.4875 6.90475 0 10.5926 0 14.2716V17.7195C0 21.3985 0.478125 25.0864 0.478125 25.0864C0.478125 25.0864 0.946875 28.2233 2.38125 29.6007C4.20937 31.4135 6.60938 31.3513 7.67813 31.5468C11.5219 31.8934 24 32 24 32C24 32 34.0875 31.9822 40.8 31.529C41.7375 31.4224 43.7812 31.4135 45.6094 29.6007C47.0531 28.2233 47.5219 25.0864 47.5219 25.0864C47.5219 25.0864 48 21.4074 48 17.7195V14.2716C48 10.5926 47.5219 6.90475 47.5219 6.90475ZM19.0406 21.905V9.11747L32.0062 15.5335L19.0406 21.905Z" fill="black"/>
</svg>
